<svg width="512" height="512" viewBox="0 0 17 14" xmlns="http://www.w3.org/2000/svg" style="shape-rendering: crispEdges;">
  <!-- Dark green outer layer -->
  <rect x="3" y="13" width="2" height="1" fill="#1a4d2e"/>
  <rect x="5" y="12" width="1" height="1" fill="#1a4d2e"/>
  <rect x="6" y="11" width="1" height="1" fill="#1a4d2e"/>
  <rect x="7" y="10" width="1" height="1" fill="#1a4d2e"/>
  <rect x="8" y="9" width="1" height="1" fill="#1a4d2e"/>
  <rect x="9" y="10" width="1" height="1" fill="#1a4d2e"/>
  <rect x="10" y="11" width="1" height="1" fill="#1a4d2e"/>
  <rect x="11" y="12" width="1" height="1" fill="#1a4d2e"/>
  <rect x="12" y="13" width="2" height="1" fill="#1a4d2e"/>

  <!-- Medium green layer -->
  <rect x="5" y="13" width="1" height="1" fill="#2d6a4f"/>
  <rect x="6" y="12" width="1" height="1" fill="#2d6a4f"/>
  <rect x="7" y="11" width="1" height="1" fill="#2d6a4f"/>
  <rect x="8" y="10" width="1" height="1" fill="#2d6a4f"/>
  <rect x="9" y="11" width="1" height="1" fill="#2d6a4f"/>
  <rect x="10" y="12" width="1" height="1" fill="#2d6a4f"/>
  <rect x="11" y="13" width="1" height="1" fill="#2d6a4f"/>

  <!-- Light green layer -->
  <rect x="6" y="13" width="1" height="1" fill="#74c69d"/>
  <rect x="7" y="12" width="1" height="1" fill="#74c69d"/>
  <rect x="8" y="11" width="1" height="1" fill="#74c69d"/>
  <rect x="9" y="12" width="1" height="1" fill="#74c69d"/>
  <rect x="10" y="13" width="1" height="1" fill="#74c69d"/>

  <!-- White layer -->
  <rect x="7" y="13" width="1" height="1" fill="#f0f0f0"/>
  <rect x="8" y="12" width="1" height="1" fill="#f0f0f0"/>
  <rect x="9" y="13" width="1" height="1" fill="#f0f0f0"/>

  <!-- Dark red border -->
  <rect x="4" y="10" width="1" height="1" fill="#c1121f"/>
  <rect x="5" y="9" width="1" height="1" fill="#c1121f"/>
  <rect x="6" y="8" width="1" height="1" fill="#c1121f"/>
  <rect x="7" y="7" width="1" height="1" fill="#c1121f"/>
  <rect x="8" y="6" width="2" height="1" fill="#c1121f"/>
  <rect x="10" y="7" width="1" height="1" fill="#c1121f"/>
  <rect x="11" y="8" width="1" height="1" fill="#c1121f"/>
  <rect x="12" y="9" width="1" height="1" fill="#c1121f"/>
  <rect x="13" y="10" width="1" height="1" fill="#c1121f"/>

  <!-- Medium red flesh -->
  <rect x="5" y="10" width="1" height="1" fill="#e63946"/>
  <rect x="6" y="9" width="1" height="1" fill="#e63946"/>
  <rect x="7" y="8" width="1" height="1" fill="#e63946"/>
  <rect x="8" y="7" width="2" height="1" fill="#e63946"/>
  <rect x="10" y="8" width="1" height="1" fill="#e63946"/>
  <rect x="11" y="9" width="1" height="1" fill="#e63946"/>
  <rect x="12" y="10" width="1" height="1" fill="#e63946"/>

  <!-- Light red flesh -->
  <rect x="5" y="11" width="2" height="1" fill="#f77f8a"/>
  <rect x="6" y="10" width="2" height="1" fill="#f77f8a"/>
  <rect x="7" y="9" width="3" height="1" fill="#f77f8a"/>
  <rect x="8" y="8" width="2" height="1" fill="#f77f8a"/>
  <rect x="10" y="9" width="2" height="1" fill="#f77f8a"/>
  <rect x="11" y="10" width="1" height="1" fill="#f77f8a"/>
  <rect x="11" y="11" width="1" height="1" fill="#f77f8a"/>

  <!-- Dark red inside -->
  <rect x="7" y="10" width="1" height="1" fill="#d62828"/>
  <rect x="8" y="9" width="1" height="1" fill="#d62828"/>
  <rect x="9" y="8" width="1" height="1" fill="#d62828"/>
  <rect x="9" y="9" width="1" height="1" fill="#d62828"/>
  <rect x="10" y="10" width="1" height="1" fill="#d62828"/>

  <!-- Black seeds -->
  <rect x="6" y="7" width="1" height="1" fill="#000"/>
  <rect x="8" y="5" width="1" height="1" fill="#000"/>
  <rect x="10" y="6" width="1" height="1" fill="#000"/>
  <rect x="11" y="7" width="1" height="1" fill="#000"/>
  <rect x="5" y="8" width="1" height="1" fill="#000"/>
  <rect x="7" y="6" width="1" height="1" fill="#000"/>
  <rect x="9" y="7" width="1" height="1" fill="#000"/>
  <rect x="12" y="8" width="1" height="1" fill="#000"/>
  <rect x="6" y="9" width="1" height="1" fill="#000"/>
  <rect x="8" y="8" width="1" height="1" fill="#000"/>
  <rect x="10" y="9" width="1" height="1" fill="#000"/>
  <rect x="11" y="10" width="1" height="1" fill="#000"/>
  <rect x="5" y="10" width="1" height="1" fill="#000"/>
  <rect x="7" y="9" width="1" height="1" fill="#000"/>
  <rect x="9" y="10" width="1" height="1" fill="#000"/>
  <rect x="12" y="9" width="1" height="1" fill="#000"/>
  <rect x="6" y="8" width="1" height="1" fill="#000"/>
  <rect x="8" y="7" width="1" height="1" fill="#000"/>
  <rect x="10" y="8" width="1" height="1" fill="#000"/>
  <rect x="11" y="9" width="1" height="1" fill="#000"/>
</svg>
